<?xml version="1.0" encoding="UTF-8" standalone="no"?>
<!-- Created with Inkscape (http://www.inkscape.org/) -->

<svg
   xmlns:dc="http://purl.org/dc/elements/1.1/"
   xmlns:cc="http://creativecommons.org/ns#"
   xmlns:rdf="http://www.w3.org/1999/02/22-rdf-syntax-ns#"
   xmlns:svg="http://www.w3.org/2000/svg"
   xmlns="http://www.w3.org/2000/svg"
   xmlns:sodipodi="http://sodipodi.sourceforge.net/DTD/sodipodi-0.dtd"
   xmlns:inkscape="http://www.inkscape.org/namespaces/inkscape"
   width="64"
   height="64"
   viewBox="0 0 16.933332 16.933332"
   version="1.1"
   id="svg5198"
   inkscape:version="0.92.3 (2405546, 2018-03-11)"
   sodipodi:docname="logo_small.svg"
   inkscape:export-filename="/home/simon/Desktop/logo.png"
   inkscape:export-xdpi="768"
   inkscape:export-ydpi="768">
  <defs
     id="defs5192" />
  <sodipodi:namedview
     id="base"
     pagecolor="#ffffff"
     bordercolor="#666666"
     borderopacity="1.0"
     inkscape:pageopacity="0.0"
     inkscape:pageshadow="2"
     inkscape:zoom="2.8"
     inkscape:cx="-9.3023356"
     inkscape:cy="-2.5897459"
     inkscape:document-units="mm"
     inkscape:current-layer="layer1"
     showgrid="false"
     units="px"
     inkscape:window-width="1920"
     inkscape:window-height="1044"
     inkscape:window-x="0"
     inkscape:window-y="0"
     inkscape:window-maximized="1" />
  <metadata
     id="metadata5195">
    <rdf:RDF>
      <cc:Work
         rdf:about="">
        <dc:format>image/svg+xml</dc:format>
        <dc:type
           rdf:resource="http://purl.org/dc/dcmitype/StillImage" />
        <dc:title />
      </cc:Work>
    </rdf:RDF>
  </metadata>
  <g
     inkscape:label="Layer 1"
     inkscape:groupmode="layer"
     id="layer1"
     transform="translate(0,-280.06667)">
    <g
       id="g5126"
       transform="matrix(0.3356176,0.56036561,-0.56036561,0.3356176,140.58898,182.65831)"
       style="stroke-width:0.66368204">
      <rect
         y="251.5542"
         x="38.18679"
         height="4.3609982"
         width="3.7899098"
         id="rect5118"
         style="opacity:1;vector-effect:none;fill:#000000;fill-opacity:1;stroke:none;stroke-width:0.87799615;stroke-linecap:butt;stroke-linejoin:round;stroke-miterlimit:4;stroke-dasharray:none;stroke-dashoffset:0;stroke-opacity:1" />
      <rect
         y="252.43678"
         x="42.464176"
         height="2.8034954"
         width="5.8173685"
         id="rect5120"
         style="opacity:1;vector-effect:none;fill:#000000;fill-opacity:1;stroke:none;stroke-width:0.87799615;stroke-linecap:butt;stroke-linejoin:round;stroke-miterlimit:4;stroke-dasharray:none;stroke-dashoffset:0;stroke-opacity:1" />
      <rect
         style="opacity:1;vector-effect:none;fill:#000000;fill-opacity:1;stroke:none;stroke-width:0.87799615;stroke-linecap:butt;stroke-linejoin:round;stroke-miterlimit:4;stroke-dasharray:none;stroke-dashoffset:0;stroke-opacity:1"
         id="rect5122"
         width="4.2176547"
         height="0.93450397"
         x="37.972916"
         y="253.26744" />
      <rect
         y="252.43678"
         x="31.900299"
         height="2.8034954"
         width="5.8173685"
         id="rect5124"
         style="opacity:1;vector-effect:none;fill:#000000;fill-opacity:1;stroke:none;stroke-width:0.87799615;stroke-linecap:butt;stroke-linejoin:round;stroke-miterlimit:4;stroke-dasharray:none;stroke-dashoffset:0;stroke-opacity:1" />
    </g>
    <path
       inkscape:connector-curvature="0"
       style="fill:#000000;fill-rule:evenodd;stroke:#070707;stroke-width:0.29667971;stroke-linecap:round;stroke-linejoin:round;stroke-miterlimit:4;stroke-dasharray:none;stroke-opacity:1"
       d="m 16.662701,282.91723 c -1.458734,0.48534 -2.921515,1.00877 -4.341042,1.55588 0.04828,0.0441 0.09574,0.0891 0.142365,0.13498 1.398926,-0.6098 2.823046,-1.18515 4.198677,-1.69086 z m -12.8620459,5.57455 c -2.4009023,1.48634 -3.80031635802,2.93514 -3.40481717,4.13655 0.62783437,1.9072 6.33505427,0.25038 9.08049897,-1.32248 -3.7677288,1.2164 -7.3952475,2.05892 -7.8033939,0.24389 -0.1240695,-0.55172 0.729998,-1.41278 2.1812737,-2.41025 -0.030833,-0.21456 -0.048719,-0.43088 -0.053554,-0.64771 z"
       id="path1338"
       sodipodi:nodetypes="ccccccccccc" />
    <path
       inkscape:connector-curvature="0"
       style="opacity:1;vector-effect:none;fill:#040404;fill-opacity:1;stroke:#070707;stroke-width:0.29667971;stroke-linecap:round;stroke-linejoin:round;stroke-miterlimit:4;stroke-dasharray:none;stroke-dashoffset:0;stroke-opacity:1"
       d="m 8.6305183,282.76591 a 5.4221123,5.4221123 0 0 0 -5.4220232,5.42222 5.4221123,5.4221123 0 0 0 5.4220232,5.42203 5.4221123,5.4221123 0 0 0 1.0011364,-0.0965 5.0499292,5.0956188 0 0 1 -0.5873823,0.0408 5.0499292,5.0956188 0 0 1 -5.0500805,-5.09568 5.0499292,5.0956188 0 0 1 5.0500805,-5.09548 5.0499292,5.0956188 0 0 1 4.9600826,4.15647 5.4221123,5.4221123 0 0 0 -5.3738367,-4.7538 z"
       id="circle1340" />
    <g
       id="g5168"
       transform="matrix(0.26471143,-0.14149118,0.14149118,0.26471143,-18.393966,227.09734)" />
  </g>
</svg>
