<?xml version="1.0" encoding="UTF-8" standalone="no"?>
<!-- Created with Inkscape (http://www.inkscape.org/) -->

<svg
   xmlns:dc="http://purl.org/dc/elements/1.1/"
   xmlns:cc="http://creativecommons.org/ns#"
   xmlns:rdf="http://www.w3.org/1999/02/22-rdf-syntax-ns#"
   xmlns:svg="http://www.w3.org/2000/svg"
   xmlns="http://www.w3.org/2000/svg"
   xmlns:xlink="http://www.w3.org/1999/xlink"
   xmlns:sodipodi="http://sodipodi.sourceforge.net/DTD/sodipodi-0.dtd"
   xmlns:inkscape="http://www.inkscape.org/namespaces/inkscape"
   width="400"
   height="230"
   viewBox="0 0 105.83334 60.85417"
   version="1.1"
   id="svg1349"
   inkscape:version="0.92.3 (2405546, 2018-03-11)"
   sodipodi:docname="cosmoscout_final.svg">
  <defs
     id="defs1343">
    <linearGradient
       id="linearGradient6927">
      <stop
         offset="0"
         style="stop-color:#ffffff;stop-opacity:1"
         id="stop6929" />
      <stop
         offset="0.49576846"
         style="stop-color:#929292;stop-opacity:1"
         id="stop6931" />
      <stop
         offset="1"
         style="stop-color:#ffffff;stop-opacity:1"
         id="stop6933" />
    </linearGradient>
    <linearGradient
       id="linearGradient6796">
      <stop
         offset="0"
         style="stop-color:#929292;stop-opacity:0"
         id="stop6798" />
      <stop
         offset="0.49576846"
         style="stop-color:#929292;stop-opacity:0.99607843"
         id="stop6802" />
      <stop
         offset="1"
         style="stop-color:#929292;stop-opacity:0"
         id="stop6800" />
    </linearGradient>
    <linearGradient
       id="linearGradient6673">
      <stop
         offset="0"
         style="stop-color:#929292;stop-opacity:1"
         id="stop6675" />
      <stop
         offset="1"
         style="stop-color:#929292;stop-opacity:0"
         id="stop6677" />
    </linearGradient>
    <linearGradient
       id="linearGradient4359">
      <stop
         offset="0"
         style="stop-color:#e7e7e7;stop-opacity:1"
         id="stop4361" />
      <stop
         offset="1"
         style="stop-color:#e7e7e7;stop-opacity:0"
         id="stop4363" />
    </linearGradient>
    <linearGradient
       id="linearGradient10810">
      <stop
         offset="0"
         style="stop-color:#ffffff;stop-opacity:1"
         id="stop10812" />
      <stop
         offset="1"
         style="stop-color:#ffffff;stop-opacity:0.48571429"
         id="stop10814" />
    </linearGradient>
    <linearGradient
       gradientTransform="matrix(1.1500631,0,0,0.90361446,3.4303151,924.96366)"
       gradientUnits="userSpaceOnUse"
       xlink:href="#linearGradient10810"
       id="linearGradient10816"
       y2="156.4427"
       x2="266.9328"
       y1="156.4427"
       x1="-13.435029" />
    <linearGradient
       gradientTransform="matrix(1.9573257,0,0,0.97952756,2927.5051,-304.15797)"
       gradientUnits="userSpaceOnUse"
       xlink:href="#linearGradient4144"
       id="linearGradient4150"
       y2="152.76776"
       x2="-970.47308"
       y1="152.76776"
       x1="-1058.3904" />
    <linearGradient
       id="linearGradient4144">
      <stop
         offset="0"
         style="stop-color:#d5d5d5;stop-opacity:1"
         id="stop4146" />
      <stop
         offset="1"
         style="stop-color:#ececec;stop-opacity:0"
         id="stop4148" />
    </linearGradient>
    <linearGradient
       gradientTransform="matrix(0.54122169,0,0,1.0346457,-485.32975,-307.81048)"
       gradientUnits="userSpaceOnUse"
       xlink:href="#linearGradient4144"
       id="linearGradient4176"
       y2="94.050186"
       x2="-968.61554"
       y1="94.050186"
       x1="-1054.8406" />
    <linearGradient
       gradientTransform="matrix(1.7135005,0,0,1.0135988,-139.34409,860.37336)"
       gradientUnits="userSpaceOnUse"
       xlink:href="#linearGradient4359"
       id="linearGradient4365"
       y2="55.132095"
       x2="105.00536"
       y1="112.07175"
       x1="105.00536" />
    <linearGradient
       spreadMethod="reflect"
       gradientTransform="matrix(1,0,0,0.10539318,-15.65625,870.59595)"
       gradientUnits="userSpaceOnUse"
       xlink:href="#linearGradient6673"
       id="linearGradient6714"
       y2="442.83615"
       x2="728.32001"
       y1="442.83615"
       x1="384.23975" />
    <linearGradient
       spreadMethod="repeat"
       gradientTransform="matrix(1,0,0,0.10539318,-15.65625,14.996751)"
       gradientUnits="userSpaceOnUse"
       xlink:href="#linearGradient6796"
       id="linearGradient6742"
       y2="442.83615"
       x2="728.32001"
       y1="442.83615"
       x1="13.739678" />
    <linearGradient
       spreadMethod="repeat"
       gradientTransform="matrix(1,0,0,0.10539318,-15.65625,869.99675)"
       gradientUnits="userSpaceOnUse"
       xlink:href="#linearGradient6927"
       id="linearGradient6806"
       y2="442.83615"
       x2="728.32001"
       y1="442.83615"
       x1="13.739678" />
    <linearGradient
       spreadMethod="repeat"
       gradientTransform="matrix(1,0,0,0.10539318,-15.65625,12.983335)"
       gradientUnits="userSpaceOnUse"
       xlink:href="#linearGradient6927"
       id="linearGradient6937"
       y2="442.83615"
       x2="728.32001"
       y1="442.83615"
       x1="13.739678" />
    <filter
       id="filter6385"
       style="color-interpolation-filters:sRGB">
      <feGaussianBlur
         stdDeviation="2.5585048"
         id="feGaussianBlur6387" />
    </filter>
    <filter
       id="filter6389"
       style="color-interpolation-filters:sRGB">
      <feGaussianBlur
         stdDeviation="2.5585048"
         id="feGaussianBlur6391" />
    </filter>
    <filter
       id="filter6393"
       style="color-interpolation-filters:sRGB">
      <feGaussianBlur
         stdDeviation="2.5585048"
         id="feGaussianBlur6395" />
    </filter>
    <filter
       id="filter6397"
       style="color-interpolation-filters:sRGB">
      <feGaussianBlur
         stdDeviation="2.5585048"
         id="feGaussianBlur6399" />
    </filter>
    <filter
       id="filter6401"
       style="color-interpolation-filters:sRGB">
      <feGaussianBlur
         stdDeviation="2.5585048"
         id="feGaussianBlur6403" />
    </filter>
    <filter
       id="filter6405"
       style="color-interpolation-filters:sRGB">
      <feGaussianBlur
         stdDeviation="2.5585048"
         id="feGaussianBlur6407" />
    </filter>
    <filter
       id="filter6409"
       style="color-interpolation-filters:sRGB">
      <feGaussianBlur
         stdDeviation="2.5585048"
         id="feGaussianBlur6411" />
    </filter>
    <filter
       id="filter6413"
       style="color-interpolation-filters:sRGB">
      <feGaussianBlur
         stdDeviation="2.5585048"
         id="feGaussianBlur6415" />
    </filter>
    <filter
       id="filter6417"
       height="2.0231647"
       width="1.1618947"
       y="-0.51158243"
       x="-0.080947347"
       style="color-interpolation-filters:sRGB">
      <feGaussianBlur
         stdDeviation="2.5585048"
         id="feGaussianBlur6419" />
    </filter>
    <filter
       id="filter6421"
       height="2.0231647"
       width="1.036339"
       y="-0.51158243"
       x="-0.018169476"
       style="color-interpolation-filters:sRGB">
      <feGaussianBlur
         stdDeviation="2.5585048"
         id="feGaussianBlur6423" />
    </filter>
    <filter
       id="filter6425"
       height="2.0231647"
       width="1.0755169"
       y="-0.51158243"
       x="-0.037758473"
       style="color-interpolation-filters:sRGB">
      <feGaussianBlur
         stdDeviation="2.5585048"
         id="feGaussianBlur6427" />
    </filter>
    <filter
       id="filter6429"
       height="2.0231647"
       width="1.1618947"
       y="-0.51158243"
       x="-0.080947347"
       style="color-interpolation-filters:sRGB">
      <feGaussianBlur
         stdDeviation="2.5585048"
         id="feGaussianBlur6431" />
    </filter>
    <filter
       id="filter6433"
       height="2.0231647"
       width="1.1618947"
       y="-0.51158243"
       x="-0.080947347"
       style="color-interpolation-filters:sRGB">
      <feGaussianBlur
         stdDeviation="2.5585048"
         id="feGaussianBlur6435" />
    </filter>
    <filter
       id="filter6437"
       height="2.0231647"
       width="1.036339"
       y="-0.51158243"
       x="-0.018169476"
       style="color-interpolation-filters:sRGB">
      <feGaussianBlur
         stdDeviation="2.5585048"
         id="feGaussianBlur6439" />
    </filter>
    <filter
       id="filter6441"
       height="2.0231647"
       width="1.0755169"
       y="-0.51158243"
       x="-0.037758473"
       style="color-interpolation-filters:sRGB">
      <feGaussianBlur
         stdDeviation="2.5585048"
         id="feGaussianBlur6443" />
    </filter>
    <filter
       id="filter6445"
       height="2.0231647"
       width="1.1618947"
       y="-0.51158243"
       x="-0.080947347"
       style="color-interpolation-filters:sRGB">
      <feGaussianBlur
         stdDeviation="2.5585048"
         id="feGaussianBlur6447" />
    </filter>
    <filter
       id="filter6489"
       style="color-interpolation-filters:sRGB">
      <feGaussianBlur
         stdDeviation="1.2792524"
         id="feGaussianBlur6491" />
    </filter>
    <filter
       id="filter6385-3"
       style="color-interpolation-filters:sRGB">
      <feGaussianBlur
         stdDeviation="2.5585048"
         id="feGaussianBlur6387-4" />
    </filter>
    <filter
       id="filter6389-6"
       style="color-interpolation-filters:sRGB">
      <feGaussianBlur
         stdDeviation="2.5585048"
         id="feGaussianBlur6391-1" />
    </filter>
    <filter
       id="filter6393-5"
       style="color-interpolation-filters:sRGB">
      <feGaussianBlur
         stdDeviation="2.5585048"
         id="feGaussianBlur6395-6" />
    </filter>
    <filter
       id="filter6397-1"
       style="color-interpolation-filters:sRGB">
      <feGaussianBlur
         stdDeviation="2.5585048"
         id="feGaussianBlur6399-7" />
    </filter>
    <filter
       id="filter6401-2"
       style="color-interpolation-filters:sRGB">
      <feGaussianBlur
         stdDeviation="2.5585048"
         id="feGaussianBlur6403-2" />
    </filter>
    <filter
       id="filter6405-9"
       style="color-interpolation-filters:sRGB">
      <feGaussianBlur
         stdDeviation="2.5585048"
         id="feGaussianBlur6407-2" />
    </filter>
    <filter
       id="filter6409-8"
       style="color-interpolation-filters:sRGB">
      <feGaussianBlur
         stdDeviation="2.5585048"
         id="feGaussianBlur6411-1" />
    </filter>
    <filter
       id="filter6413-2"
       style="color-interpolation-filters:sRGB">
      <feGaussianBlur
         stdDeviation="2.5585048"
         id="feGaussianBlur6415-4" />
    </filter>
    <filter
       id="filter6417-7"
       height="2.0231647"
       width="1.1618947"
       y="-0.51158243"
       x="-0.080947347"
       style="color-interpolation-filters:sRGB">
      <feGaussianBlur
         stdDeviation="2.5585048"
         id="feGaussianBlur6419-8" />
    </filter>
    <filter
       id="filter6421-6"
       height="2.0231647"
       width="1.036339"
       y="-0.51158243"
       x="-0.018169476"
       style="color-interpolation-filters:sRGB">
      <feGaussianBlur
         stdDeviation="2.5585048"
         id="feGaussianBlur6423-3" />
    </filter>
    <filter
       id="filter6425-7"
       height="2.0231647"
       width="1.0755169"
       y="-0.51158243"
       x="-0.037758473"
       style="color-interpolation-filters:sRGB">
      <feGaussianBlur
         stdDeviation="2.5585048"
         id="feGaussianBlur6427-7" />
    </filter>
    <filter
       id="filter6429-2"
       height="2.0231647"
       width="1.1618947"
       y="-0.51158243"
       x="-0.080947347"
       style="color-interpolation-filters:sRGB">
      <feGaussianBlur
         stdDeviation="2.5585048"
         id="feGaussianBlur6431-3" />
    </filter>
    <filter
       id="filter6433-7"
       height="2.0231647"
       width="1.1618947"
       y="-0.51158243"
       x="-0.080947347"
       style="color-interpolation-filters:sRGB">
      <feGaussianBlur
         stdDeviation="2.5585048"
         id="feGaussianBlur6435-2" />
    </filter>
    <filter
       id="filter6437-5"
       height="2.0231647"
       width="1.036339"
       y="-0.51158243"
       x="-0.018169476"
       style="color-interpolation-filters:sRGB">
      <feGaussianBlur
         stdDeviation="2.5585048"
         id="feGaussianBlur6439-3" />
    </filter>
    <filter
       id="filter6441-7"
       height="2.0231647"
       width="1.0755169"
       y="-0.51158243"
       x="-0.037758473"
       style="color-interpolation-filters:sRGB">
      <feGaussianBlur
         stdDeviation="2.5585048"
         id="feGaussianBlur6443-6" />
    </filter>
    <filter
       id="filter6445-8"
       height="2.0231647"
       width="1.1618947"
       y="-0.51158243"
       x="-0.080947347"
       style="color-interpolation-filters:sRGB">
      <feGaussianBlur
         stdDeviation="2.5585048"
         id="feGaussianBlur6447-1" />
    </filter>
    <filter
       id="filter6489-3"
       style="color-interpolation-filters:sRGB">
      <feGaussianBlur
         stdDeviation="1.2792524"
         id="feGaussianBlur6491-6" />
    </filter>
  </defs>
  <sodipodi:namedview
     id="base"
     pagecolor="#ffffff"
     bordercolor="#666666"
     borderopacity="1.0"
     inkscape:pageopacity="0"
     inkscape:pageshadow="2"
     inkscape:zoom="1.2740793"
     inkscape:cx="171.88773"
     inkscape:cy="157.73629"
     inkscape:document-units="px"
     inkscape:current-layer="flowRoot2337"
     showgrid="false"
     fit-margin-top="0"
     fit-margin-left="0"
     fit-margin-right="0"
     fit-margin-bottom="0"
     inkscape:window-width="1920"
     inkscape:window-height="1044"
     inkscape:window-x="0"
     inkscape:window-y="0"
     inkscape:window-maximized="1"
     units="px"
     showguides="false"
     inkscape:guide-bbox="true">
    <sodipodi:guide
       position="52.747243,57.004402"
       orientation="1,0"
       id="guide1814"
       inkscape:locked="false" />
  </sodipodi:namedview>
  <metadata
     id="metadata1346">
    <rdf:RDF>
      <cc:Work
         rdf:about="">
        <dc:format>image/svg+xml</dc:format>
        <dc:type
           rdf:resource="http://purl.org/dc/dcmitype/StillImage" />
        <dc:title></dc:title>
      </cc:Work>
    </rdf:RDF>
  </metadata>
  <g
     inkscape:label="Layer 1"
     inkscape:groupmode="layer"
     id="layer1"
     transform="translate(39.688077,-223.92664)">
    <g
       id="g2377"
       transform="translate(178.75912,119.27926)">
      <g
         aria-label="CosmoScout VR"
         transform="matrix(0.45197513,0,0,0.45197513,-300.55324,-61.991631)"
         style="font-style:normal;font-weight:normal;line-height:0.01%;font-family:sans-serif;text-align:center;letter-spacing:0px;word-spacing:0px;text-anchor:middle;opacity:1;fill:#000000;fill-opacity:1;stroke:none;stroke-width:1px;stroke-linecap:butt;stroke-linejoin:miter;stroke-opacity:1"
         id="flowRoot2297">
        <path
           d="m 199.01889,459.87614 q 3.4508,0 5.9791,1.63999 l -0.54666,2.49413 -0.30749,0.0683 q -2.28915,-1.91331 -5.26161,-1.91331 -3.2458,0 -4.98828,2.25497 -1.74248,2.22081 -1.74248,6.52576 0,4.33912 1.74248,6.62826 1.74248,2.28914 4.91995,2.28914 1.50331,0 2.97246,-0.54666 1.50332,-0.54666 2.7333,-1.53748 l 0.34167,0.17083 -0.23917,2.59664 q -2.97246,1.63998 -6.04743,1.63998 -4.40745,0 -6.83326,-2.8358 -2.4258,-2.86997 -2.4258,-8.16575 0,-5.43243 2.5283,-8.37074 2.52831,-2.9383 7.17492,-2.9383 z"
           style="font-style:normal;font-variant:normal;font-weight:normal;font-stretch:normal;font-size:34.16628647px;line-height:1.25;font-family:'Alegreya Sans SC';-inkscape-font-specification:'Alegreya Sans SC';text-align:center;text-anchor:middle;opacity:1;fill:#000000"
           id="path1859" />
        <path
           d="m 215.47263,464.72776 q 3.72412,0 5.70577,2.18664 2.01581,2.18664 2.01581,6.1841 0,4.33912 -2.15248,6.73076 -2.11831,2.35747 -6.0816,2.35747 -3.68996,0 -5.70577,-2.22081 -2.01581,-2.25497 -2.01581,-6.3891 0,-4.23661 2.15248,-6.52576 2.15248,-2.3233 6.0816,-2.3233 z m -0.23917,2.15247 q -2.69913,0 -4.03162,1.53749 -1.29832,1.53748 -1.29832,4.85161 0,3.55329 1.29832,5.15911 1.29832,1.60581 3.96329,1.60581 2.7333,0 4.06579,-1.57165 1.33248,-1.57165 1.33248,-4.91994 0,-3.4508 -1.33248,-5.05661 -1.29832,-1.60582 -3.99746,-1.60582 z"
           style="font-style:normal;font-variant:normal;font-weight:normal;font-stretch:normal;font-size:34.16628647px;line-height:1.25;font-family:'Alegreya Sans SC';-inkscape-font-specification:'Alegreya Sans SC';text-align:center;text-anchor:middle;opacity:1;fill:#000000"
           id="path1861" />
        <path
           d="m 232.81682,464.76192 q 2.08415,0 4.16829,0.81999 l -0.44416,2.52831 -0.41,0.1025 q -0.95665,-0.75166 -1.81081,-1.09332 -0.85416,-0.37583 -1.77665,-0.37583 -1.46915,0 -2.3233,0.78582 -0.85416,0.75166 -0.85416,1.74248 0,0.99083 0.81999,1.60582 0.85416,0.61499 2.59664,1.36665 1.53748,0.68333 2.4258,1.22999 0.92249,0.54666 1.57165,1.46915 0.68333,0.88832 0.68333,2.18664 0,1.33248 -0.71749,2.49414 -0.7175,1.12748 -2.11831,1.84498 -1.36666,0.68332 -3.27997,0.68332 -1.19582,0 -2.5283,-0.27333 -1.29832,-0.30749 -2.42581,-0.88832 l 0.3075,-2.69914 0.34166,-0.13666 q 0.95666,0.95665 2.22081,1.50331 1.29832,0.5125 2.39164,0.5125 1.43498,0 2.35747,-0.75166 0.92249,-0.78582 0.92249,-1.87915 0,-1.02498 -0.85415,-1.63998 -0.82,-0.61499 -2.59664,-1.43498 -1.46915,-0.64916 -2.42581,-1.19582 -0.92249,-0.54666 -1.57165,-1.43499 -0.64916,-0.92249 -0.64916,-2.2208 0,-1.36666 0.71749,-2.45998 0.75166,-1.09332 2.08415,-1.74248 1.36665,-0.64916 3.17746,-0.64916 z"
           style="font-style:normal;font-variant:normal;font-weight:normal;font-stretch:normal;font-size:34.16628647px;line-height:1.25;font-family:'Alegreya Sans SC';-inkscape-font-specification:'Alegreya Sans SC';text-align:center;text-anchor:middle;opacity:1;fill:#000000"
           id="path1863" />
        <path
           d="m 260.44987,481.94756 h -2.28914 l -0.37583,-5.19327 -0.92249,-7.85825 h -0.20499 l -4.88578,11.13821 h -2.01581 l -4.61245,-11.13821 h -0.205 l -0.88832,7.65325 -0.47833,5.39827 h -2.18664 l 1.87914,-17.01481 h 2.97247 l 0.85416,2.56248 3.72412,9.15656 h 0.205 l 3.89496,-9.29323 0.88832,-2.42581 h 2.90413 z"
           style="font-style:normal;font-variant:normal;font-weight:normal;font-stretch:normal;font-size:34.16628647px;line-height:1.25;font-family:'Alegreya Sans SC';-inkscape-font-specification:'Alegreya Sans SC';text-align:center;text-anchor:middle;opacity:1;fill:#000000"
           id="path1865" />
        <path
           d="m 272.39419,464.72776 q 3.72413,0 5.70577,2.18664 2.01581,2.18664 2.01581,6.1841 0,4.33912 -2.15247,6.73076 -2.11831,2.35747 -6.0816,2.35747 -3.68996,0 -5.70577,-2.22081 -2.01581,-2.25497 -2.01581,-6.3891 0,-4.23661 2.15247,-6.52576 2.15248,-2.3233 6.0816,-2.3233 z m -0.23916,2.15247 q -2.69914,0 -4.03162,1.53749 -1.29832,1.53748 -1.29832,4.85161 0,3.55329 1.29832,5.15911 1.29832,1.60581 3.96329,1.60581 2.7333,0 4.06578,-1.57165 1.33249,-1.57165 1.33249,-4.91994 0,-3.4508 -1.33249,-5.05661 -1.29832,-1.60582 -3.99745,-1.60582 z"
           style="font-style:normal;font-variant:normal;font-weight:normal;font-stretch:normal;font-size:34.16628647px;line-height:1.25;font-family:'Alegreya Sans SC';-inkscape-font-specification:'Alegreya Sans SC';text-align:center;text-anchor:middle;opacity:1;fill:#000000"
           id="path1867" />
        <path
           d="m 290.76338,459.87614 q 2.35748,0 4.88578,1.02499 l -0.44416,2.63081 -0.47833,0.13666 q -0.99082,-0.75166 -2.11831,-1.16165 -1.09332,-0.41 -2.18664,-0.41 -1.26415,0 -2.22081,0.5125 -0.92249,0.51249 -1.43498,1.33248 -0.47833,0.81999 -0.47833,1.70832 0,0.92249 0.54666,1.63998 0.58083,0.68332 1.43498,1.19582 0.85416,0.51249 2.32331,1.22998 1.84498,0.85416 2.97247,1.60582 1.12748,0.71749 1.91331,1.84498 0.81999,1.12749 0.81999,2.7333 0,1.70832 -0.92249,3.1433 -0.92249,1.43498 -2.59664,2.28914 -1.67415,0.85416 -3.82662,0.85416 -1.43499,0 -3.00664,-0.37583 -1.53748,-0.41 -2.86996,-1.16165 l 0.34166,-2.80164 0.37583,-0.17083 q 1.19582,1.16165 2.6308,1.74248 1.46915,0.54666 2.80164,0.54666 1.29832,0 2.28914,-0.51249 1.02499,-0.5125 1.53748,-1.36666 0.54666,-0.85415 0.54666,-1.81081 0,-1.43498 -1.09332,-2.28914 -1.09332,-0.88832 -3.31413,-1.91331 -1.81081,-0.88833 -2.90413,-1.57165 -1.09332,-0.71749 -1.87915,-1.81081 -0.78582,-1.12749 -0.78582,-2.73331 0,-1.67415 0.88832,-3.07496 0.92249,-1.40082 2.52831,-2.18665 1.63998,-0.81999 3.72412,-0.81999 z"
           style="font-style:normal;font-variant:normal;font-weight:normal;font-stretch:normal;font-size:34.16628647px;line-height:1.25;font-family:'Alegreya Sans SC';-inkscape-font-specification:'Alegreya Sans SC';text-align:center;text-anchor:middle;opacity:1;fill:#000000"
           id="path1869" />
        <path
           d="m 307.49311,464.76192 q 2.8358,0 4.91995,1.19582 l -0.47833,2.35748 -0.3075,0.1025 q -0.85416,-0.7175 -1.98164,-1.12749 -1.12749,-0.41 -2.42581,-0.41 -2.5283,0 -3.86079,1.63998 -1.33248,1.60582 -1.33248,4.81745 0,3.2458 1.33248,4.95411 1.33249,1.70832 3.86079,1.70832 1.22999,0 2.45997,-0.41 1.26416,-0.44416 2.25498,-1.16165 l 0.30749,0.1025 -0.23916,2.35747 q -2.32331,1.26415 -4.88578,1.26415 -3.75829,0 -5.7741,-2.22081 -2.01581,-2.25497 -2.01581,-6.38909 0,-4.20245 2.11831,-6.4916 2.15247,-2.28914 6.04743,-2.28914 z"
           style="font-style:normal;font-variant:normal;font-weight:normal;font-stretch:normal;font-size:34.16628647px;line-height:1.25;font-family:'Alegreya Sans SC';-inkscape-font-specification:'Alegreya Sans SC';text-align:center;text-anchor:middle;opacity:1;fill:#000000"
           id="path1871" />
        <path
           d="m 323.24324,464.72776 q 3.72412,0 5.70577,2.18664 2.01581,2.18664 2.01581,6.1841 0,4.33912 -2.15248,6.73076 -2.11831,2.35747 -6.0816,2.35747 -3.68996,0 -5.70577,-2.22081 -2.01581,-2.25497 -2.01581,-6.3891 0,-4.23661 2.15248,-6.52576 2.15247,-2.3233 6.0816,-2.3233 z m -0.23917,2.15247 q -2.69913,0 -4.03162,1.53749 -1.29832,1.53748 -1.29832,4.85161 0,3.55329 1.29832,5.15911 1.29832,1.60581 3.96329,1.60581 2.7333,0 4.06579,-1.57165 1.33248,-1.57165 1.33248,-4.91994 0,-3.4508 -1.33248,-5.05661 -1.29832,-1.60582 -3.99746,-1.60582 z"
           style="font-style:normal;font-variant:normal;font-weight:normal;font-stretch:normal;font-size:34.16628647px;line-height:1.25;font-family:'Alegreya Sans SC';-inkscape-font-specification:'Alegreya Sans SC';text-align:center;text-anchor:middle;opacity:1;fill:#000000"
           id="path1873" />
        <path
           d="m 348.65067,473.57682 v 2.45998 q 0.0342,2.90413 -1.77664,4.50995 -1.77665,1.60581 -5.12495,1.60581 -3.31413,0 -5.05661,-1.57165 -1.74248,-1.60581 -1.67414,-4.54411 l 0.0342,-2.59664 -0.0342,-8.50741 h 2.56247 l -0.13667,10.69405 q -0.0342,2.15248 1.05916,3.2458 1.12748,1.09332 3.34829,1.09332 2.18664,0 3.31413,-1.09332 1.12749,-1.09332 1.09332,-3.2458 l -0.1025,-10.69405 h 2.59664 z"
           style="font-style:normal;font-variant:normal;font-weight:normal;font-stretch:normal;font-size:34.16628647px;line-height:1.25;font-family:'Alegreya Sans SC';-inkscape-font-specification:'Alegreya Sans SC';text-align:center;text-anchor:middle;opacity:1;fill:#000000"
           id="path1875" />
        <path
           d="m 365.07879,465.13775 -0.17084,2.15248 -3.17746,-0.23917 h -1.70832 l -0.10249,9.56656 0.10249,5.32994 h -2.56247 l 0.1025,-5.12494 -0.0683,-9.77156 h -1.70831 l -3.2458,0.23917 -0.205,-0.23917 0.205,-2.11831 h 12.40236 z"
           style="font-style:normal;font-variant:normal;font-weight:normal;font-stretch:normal;font-size:34.16628647px;line-height:1.25;font-family:'Alegreya Sans SC';-inkscape-font-specification:'Alegreya Sans SC';text-align:center;text-anchor:middle;opacity:1;fill:#000000"
           id="path1877" />
        <path
           d="m 382.79614,481.94756 h -3.17746 l -7.31158,-21.90058 h 2.80163 l 0.51249,2.2208 5.56911,16.91232 h 0.205 l 6.14993,-16.77565 0.54666,-2.35747 h 2.7333 z"
           style="font-style:normal;font-variant:normal;font-weight:normal;font-stretch:normal;font-size:34.16628647px;line-height:1.25;font-family:'Alegreya Sans SC';-inkscape-font-specification:'Alegreya Sans SC';text-align:center;text-anchor:middle;opacity:1;fill:#000000"
           id="path1879" />
        <path
           d="m 403.17473,473.0985 q 2.25497,3.72412 5.6716,8.19991 l -0.0342,0.34166 q -1.22999,0.47833 -2.52831,0.61499 l -0.37583,-0.23916 q -2.80163,-4.20246 -5.02244,-8.19991 h -3.99746 v 1.29832 l 0.13667,6.83325 h -2.76747 l 0.17083,-6.59409 -0.17083,-15.30649 6.69659,-0.0342 q 3.21163,0 4.95411,1.63998 1.77665,1.60582 1.77665,4.61245 0,2.25497 -1.19582,4.06579 -1.16165,1.77664 -3.31413,2.76747 z m -6.25243,-1.60582 4.09995,0.1025 q 3.82663,-1.09332 3.82663,-5.09078 0,-2.08414 -1.12749,-3.10913 -1.12749,-1.05915 -3.38246,-1.12749 l -3.31413,0.1025 z"
           style="font-style:normal;font-variant:normal;font-weight:normal;font-stretch:normal;font-size:34.16628647px;line-height:1.25;font-family:'Alegreya Sans SC';-inkscape-font-specification:'Alegreya Sans SC';text-align:center;text-anchor:middle;opacity:1;fill:#000000"
           id="path1881" />
      </g>
      <g
         aria-label="EXPLORE THE GALAXY"
         transform="matrix(0.39988277,0,0,0.39988277,-361.61405,-22.965442)"
         style="font-style:normal;font-weight:normal;line-height:0.01%;font-family:sans-serif;text-align:center;letter-spacing:12.53871441px;word-spacing:0px;text-anchor:middle;opacity:1;fill:#000000;fill-opacity:1;stroke:none;stroke-width:1px;stroke-linecap:butt;stroke-linejoin:miter;stroke-opacity:1"
         id="flowRoot2337">
        <g
           aria-label="UNEARTH THE GALAXY"
           transform="translate(0.70741242,-0.093633)"
           style="font-style:normal;font-weight:normal;line-height:0.01%;font-family:sans-serif;text-align:center;letter-spacing:12.53871441px;word-spacing:0px;text-anchor:middle;opacity:1;fill:#000000;fill-opacity:1;stroke:none;stroke-width:1px;stroke-linecap:butt;stroke-linejoin:miter;stroke-opacity:1"
           id="flowRoot2807">
          <path
             d="m 398.01355,456.93383 -0.01,0.75075 q 0.0198,1.16563 -0.63221,1.80772 -0.65196,0.64209 -1.84723,0.64209 -1.15576,0 -1.76821,-0.61245 -0.61245,-0.62234 -0.5927,-1.75834 l 0.0198,-0.87916 -0.0198,-3.17092 h 1.00759 l -0.0395,3.91179 q -0.01,0.82977 0.35562,1.23478 0.3655,0.40501 1.10637,0.40501 1.48174,0 1.47186,-1.54101 l -0.0494,-4.01057 h 1.02733 z"
             style="font-style:normal;font-variant:normal;font-weight:normal;font-stretch:normal;font-size:9.87826252px;line-height:1.25;font-family:'Alegreya Sans SC Medium';-inkscape-font-specification:'Alegreya Sans SC Medium, ';text-align:center;letter-spacing:5.9548707px;text-anchor:middle;opacity:1;fill:#000000"
             id="path3717" />
          <path
             d="m 410.55583,458.15874 0.0296,1.89662 h -1.09649 l -2.98324,-4.75144 h -0.0691 l -0.01,2.62762 0.0296,2.12382 h -0.92855 l 0.0494,-1.87687 -0.0395,-4.46497 h 1.07674 l 2.99311,4.75144 h 0.079 l -0.0197,-4.70205 0.94831,-0.0691 z"
             style="font-style:normal;font-variant:normal;font-weight:normal;font-stretch:normal;font-size:9.87826252px;line-height:1.25;font-family:'Alegreya Sans SC Medium';-inkscape-font-specification:'Alegreya Sans SC Medium, ';text-align:center;letter-spacing:5.9548707px;text-anchor:middle;opacity:1;fill:#000000"
             id="path3719" />
          <path
             d="m 422.01784,459.18607 0.0593,0.0889 -0.0691,0.78038 h -3.74386 l 0.0691,-1.9065 -0.0691,-4.43534 h 3.76361 l 0.0593,0.0889 -0.079,0.78038 -1.5015,-0.0395 -1.20515,0.01 -0.0296,1.84723 1.14588,0.0198 1.04709,-0.0296 0.0691,0.079 -0.079,0.78039 -1.11624,-0.0296 -1.07673,0.0198 -0.01,0.81989 0.0296,1.16564 1.20514,0.01 z"
             style="font-style:normal;font-variant:normal;font-weight:normal;font-stretch:normal;font-size:9.87826252px;line-height:1.25;font-family:'Alegreya Sans SC Medium';-inkscape-font-specification:'Alegreya Sans SC Medium, ';text-align:center;letter-spacing:5.9548707px;text-anchor:middle;opacity:1;fill:#000000"
             id="path3721" />
          <path
             d="m 433.84224,460.05536 h -1.04709 l -0.14818,-0.71123 -0.27659,-0.87917 -1.34344,-0.0296 -1.21503,0.0296 -0.29634,0.82978 -0.15806,0.76062 h -1.01746 l 2.26212,-6.34184 h 1.19527 z m -1.72869,-2.42017 -0.9088,-2.92397 h -0.0691 l -1.03722,2.92397 0.99771,0.0197 z"
             style="font-style:normal;font-variant:normal;font-weight:normal;font-stretch:normal;font-size:9.87826252px;line-height:1.25;font-family:'Alegreya Sans SC Medium';-inkscape-font-specification:'Alegreya Sans SC Medium, ';text-align:center;letter-spacing:5.9548707px;text-anchor:middle;opacity:1;fill:#000000"
             id="path3723" />
          <path
             d="m 443.74734,457.51665 q 0.67172,1.07673 1.5904,2.30163 l -0.01,0.11854 q -0.47415,0.15805 -0.97794,0.20745 l -0.11854,-0.079 q -0.8199,-1.34344 -1.32369,-2.272 h -1.07673 v 0.26671 l 0.0494,1.99541 h -1.03722 l 0.0692,-1.9065 -0.0692,-4.43534 2.15346,-0.01 q 0.9582,0 1.48174,0.48403 0.52355,0.47416 0.52355,1.3632 0,0.63221 -0.33586,1.14588 -0.32598,0.50379 -0.91868,0.8199 z m -1.89662,-0.55318 1.0866,0.0296 q 0.99771,-0.30623 0.99771,-1.3632 0,-0.55318 -0.30623,-0.82977 -0.29635,-0.2766 -0.9088,-0.29635 l -0.83965,0.0296 z"
             style="font-style:normal;font-variant:normal;font-weight:normal;font-stretch:normal;font-size:9.87826252px;line-height:1.25;font-family:'Alegreya Sans SC Medium';-inkscape-font-specification:'Alegreya Sans SC Medium, ';text-align:center;letter-spacing:5.9548707px;text-anchor:middle;opacity:1;fill:#000000"
             id="path3725" />
          <path
             d="m 455.9854,453.80242 -0.0593,0.77051 -1.14588,-0.0593 h -0.53342 l -0.0494,3.54629 0.0494,1.99541 h -1.02734 l 0.0593,-1.9065 -0.0494,-3.6352 h -0.53343 l -1.16563,0.0593 -0.0691,-0.0889 0.079,-0.7705 h 4.38595 z"
             style="font-style:normal;font-variant:normal;font-weight:normal;font-stretch:normal;font-size:9.87826252px;line-height:1.25;font-family:'Alegreya Sans SC Medium';-inkscape-font-specification:'Alegreya Sans SC Medium, ';text-align:center;letter-spacing:5.9548707px;text-anchor:middle;opacity:1;fill:#000000"
             id="path3727" />
          <path
             d="m 467.99751,458.05995 0.0296,1.99541 h -1.01746 l 0.0494,-1.9065 -0.01,-0.85941 -1.62003,-0.01 -1.48174,0.01 -0.01,0.7705 0.0395,1.99541 h -1.00758 l 0.0395,-1.9065 -0.0395,-4.43534 h 1.01746 l -0.0296,2.7264 1.55088,0.0198 1.53113,-0.0198 -0.0296,-2.7264 h 1.03722 z"
             style="font-style:normal;font-variant:normal;font-weight:normal;font-stretch:normal;font-size:9.87826252px;line-height:1.25;font-family:'Alegreya Sans SC Medium';-inkscape-font-specification:'Alegreya Sans SC Medium, ';text-align:center;letter-spacing:5.9548707px;text-anchor:middle;opacity:1;fill:#000000"
             id="path3729" />
          <path
             d="m 487.10463,453.80242 -0.0593,0.77051 -1.14587,-0.0593 h -0.53343 l -0.0494,3.54629 0.0494,1.99541 h -1.02734 l 0.0593,-1.9065 -0.0494,-3.6352 h -0.53343 l -1.16563,0.0593 -0.0691,-0.0889 0.079,-0.7705 h 4.38594 z"
             style="font-style:normal;font-variant:normal;font-weight:normal;font-stretch:normal;font-size:9.87826252px;line-height:1.25;font-family:'Alegreya Sans SC Medium';-inkscape-font-specification:'Alegreya Sans SC Medium, ';text-align:center;letter-spacing:5.9548707px;text-anchor:middle;opacity:1;fill:#000000"
             id="path3731" />
          <path
             d="m 499.11674,458.05995 0.0296,1.99541 h -1.01746 l 0.0494,-1.9065 -0.01,-0.85941 -1.62003,-0.01 -1.48174,0.01 -0.01,0.7705 0.0395,1.99541 h -1.00758 l 0.0395,-1.9065 -0.0395,-4.43534 h 1.01746 l -0.0296,2.7264 1.55089,0.0198 1.53113,-0.0198 -0.0296,-2.7264 h 1.03722 z"
             style="font-style:normal;font-variant:normal;font-weight:normal;font-stretch:normal;font-size:9.87826252px;line-height:1.25;font-family:'Alegreya Sans SC Medium';-inkscape-font-specification:'Alegreya Sans SC Medium, ';text-align:center;letter-spacing:5.9548707px;text-anchor:middle;opacity:1;fill:#000000"
             id="path3733" />
          <path
             d="m 510.57827,459.18607 0.0593,0.0889 -0.0691,0.78038 h -3.74386 l 0.0692,-1.9065 -0.0692,-4.43534 h 3.76362 l 0.0593,0.0889 -0.079,0.78038 -1.50149,-0.0395 -1.20515,0.01 -0.0296,1.84723 1.14588,0.0198 1.0471,-0.0296 0.0692,0.079 -0.079,0.78039 -1.11624,-0.0296 -1.07673,0.0198 -0.01,0.81989 0.0296,1.16564 1.20515,0.01 z"
             style="font-style:normal;font-variant:normal;font-weight:normal;font-stretch:normal;font-size:9.87826252px;line-height:1.25;font-family:'Alegreya Sans SC Medium';-inkscape-font-specification:'Alegreya Sans SC Medium, ';text-align:center;letter-spacing:5.9548707px;text-anchor:middle;opacity:1;fill:#000000"
             id="path3735" />
          <path
             d="m 527.84543,453.64437 q 0.9977,0 1.85711,0.42476 l -0.20744,0.94832 -0.10866,0.01 q -0.48404,-0.28647 -0.87917,-0.40501 -0.39513,-0.12842 -0.82977,-0.12842 -0.98783,0 -1.47186,0.60257 -0.48404,0.5927 -0.48404,1.87687 0,1.22491 0.4544,1.77809 0.4544,0.54331 1.44223,0.54331 0.24696,0 0.48404,-0.0395 0.24695,-0.0494 0.61245,-0.15805 l 0.0296,-0.64209 -0.0296,-0.97794 0.95819,-0.0692 -0.0198,0.88904 0.0296,1.45211 q -1.22491,0.38525 -2.12383,0.38525 -1.4521,0 -2.17322,-0.80014 -0.72111,-0.81002 -0.72111,-2.31152 0,-1.63979 0.8199,-2.50907 0.82977,-0.86929 2.3609,-0.86929 z"
             style="font-style:normal;font-variant:normal;font-weight:normal;font-stretch:normal;font-size:9.87826252px;line-height:1.25;font-family:'Alegreya Sans SC Medium';-inkscape-font-specification:'Alegreya Sans SC Medium, ';text-align:center;letter-spacing:5.9548707px;text-anchor:middle;opacity:1;fill:#000000"
             id="path3737" />
          <path
             d="m 541.77901,460.05536 h -1.0471 l -0.14817,-0.71123 -0.27659,-0.87917 -1.34345,-0.0296 -1.21502,0.0296 -0.29635,0.82978 -0.15805,0.76062 h -1.01746 l 2.26212,-6.34184 h 1.19527 z m -1.7287,-2.42017 -0.9088,-2.92397 h -0.0692 l -1.03721,2.92397 0.9977,0.0197 z"
             style="font-style:normal;font-variant:normal;font-weight:normal;font-stretch:normal;font-size:9.87826252px;line-height:1.25;font-family:'Alegreya Sans SC Medium';-inkscape-font-specification:'Alegreya Sans SC Medium, ';text-align:center;letter-spacing:5.9548707px;text-anchor:middle;opacity:1;fill:#000000"
             id="path3739" />
          <path
             d="m 552.08911,459.29474 -0.079,0.76062 h -3.25982 l 0.0691,-1.9065 -0.0691,-4.43534 h 1.04709 l -0.0593,4.34643 0.0198,1.14588 h 2.26212 z"
             style="font-style:normal;font-variant:normal;font-weight:normal;font-stretch:normal;font-size:9.87826252px;line-height:1.25;font-family:'Alegreya Sans SC Medium';-inkscape-font-specification:'Alegreya Sans SC Medium, ';text-align:center;letter-spacing:5.9548707px;text-anchor:middle;opacity:1;fill:#000000"
             id="path3741" />
          <path
             d="m 563.70206,460.05536 h -1.0471 l -0.14817,-0.71123 -0.27659,-0.87917 -1.34345,-0.0296 -1.21502,0.0296 -0.29635,0.82978 -0.15805,0.76062 h -1.01746 l 2.26212,-6.34184 h 1.19527 z m -1.7287,-2.42017 -0.9088,-2.92397 h -0.0692 l -1.03721,2.92397 0.9977,0.0197 z"
             style="font-style:normal;font-variant:normal;font-weight:normal;font-stretch:normal;font-size:9.87826252px;line-height:1.25;font-family:'Alegreya Sans SC Medium';-inkscape-font-specification:'Alegreya Sans SC Medium, ';text-align:center;letter-spacing:5.9548707px;text-anchor:middle;opacity:1;fill:#000000"
             id="path3743" />
          <path
             d="m 573.33427,456.74614 2.12383,3.30922 h -1.23479 l -0.28647,-0.56306 -1.29405,-1.94602 -1.35332,2.00529 -0.26671,0.50379 h -1.06686 l 2.0942,-3.17092 -2.0448,-3.17092 h 1.2249 l 0.28647,0.55318 1.20515,1.83736 1.2249,-1.85712 0.26672,-0.53342 h 1.0866 z"
             style="font-style:normal;font-variant:normal;font-weight:normal;font-stretch:normal;font-size:9.87826252px;line-height:1.25;font-family:'Alegreya Sans SC Medium';-inkscape-font-specification:'Alegreya Sans SC Medium, ';text-align:center;letter-spacing:5.9548707px;text-anchor:middle;opacity:1;fill:#000000"
             id="path3745" />
          <path
             d="m 584.6873,458.23776 0.0395,1.8176 h -1.01746 l 0.0494,-1.8176 -0.01,-0.38525 -2.00529,-4.13899 h 1.08661 l 0.12842,0.39513 1.25454,2.65725 h 0.079 l 1.39284,-2.6375 0.15805,-0.41488 h 1.05698 l -2.20286,4.0896 z"
             style="font-style:normal;font-variant:normal;font-weight:normal;font-stretch:normal;font-size:9.87826252px;line-height:1.25;font-family:'Alegreya Sans SC Medium';-inkscape-font-specification:'Alegreya Sans SC Medium, ';text-align:center;letter-spacing:5.9548707px;text-anchor:middle;opacity:1;fill:#000000"
             id="path3747" />
        </g>
      </g>
    </g>
    <g
       id="g968"
       transform="matrix(0.92295358,0,0,0.92295358,-26.34598,27.355435)">
      <circle
         r="14.769666"
         cy="236.49149"
         cx="42.694675"
         id="circle2408"
         style="opacity:1;vector-effect:none;fill:#ffffff;fill-opacity:1;stroke:#070707;stroke-width:1;stroke-linecap:butt;stroke-linejoin:round;stroke-miterlimit:4;stroke-dasharray:none;stroke-dashoffset:0;stroke-opacity:1" />
      <path
         style="fill:#000000;fill-rule:evenodd;stroke:none;stroke-width:0.92295349px;stroke-linecap:butt;stroke-linejoin:miter;stroke-opacity:1"
         d="M 246.94336 62.564453 C 267.88055 58.516107 290.15039 54.796333 312.66602 51.677734 C 290.37268 53.800768 267.69941 56.617282 245.86914 59.96875 A 51.521444 51.521444 0 0 1 245.89062 60.009766 A 51.521444 51.521444 0 0 1 246.94336 62.564453 z "
         id="path1838"
         transform="matrix(0.28667027,0,0,0.28667027,-14.45587,212.9806)" />
      <path
         style="fill:#000000;fill-rule:evenodd;stroke:none;stroke-width:0.92295349px;stroke-linecap:butt;stroke-linejoin:miter;stroke-opacity:1"
         d="M 147.87695 82.759766 C 124.77774 91.444599 110.27814 101.61313 110.2832 113.2168 C 110.29192 132.91239 170.68016 129.71129 216.59961 114.83008 C 168.69407 121.45661 128.78906 122.36774 128.78906 104.11914 C 128.78906 99.473365 136.09443 94.320721 148.39453 89.033203 A 51.521444 51.521444 0 0 1 148.10742 87.158203 A 51.521444 51.521444 0 0 1 147.87695 82.759766 z "
         id="path1836"
         transform="matrix(0.28667027,0,0,0.28667027,-14.45587,212.9806)" />
      <circle
         r="7.1025519"
         cy="243.68156"
         cx="54.547512"
         id="circle962"
         style="opacity:1;vector-effect:none;fill:#000000;fill-opacity:1;stroke:#070707;stroke-width:0.13767315;stroke-linecap:butt;stroke-linejoin:round;stroke-miterlimit:4;stroke-dasharray:none;stroke-dashoffset:0;stroke-opacity:1" />
    </g>
  </g>
</svg>
